<?xml version="1.0" standalone="no"?>
<!DOCTYPE svg PUBLIC "-//W3C//DTD SVG 20010904//EN"
 "http://www.w3.org/TR/2001/REC-SVG-20010904/DTD/svg10.dtd">
<svg version="1.0" xmlns="http://www.w3.org/2000/svg"
 width="254.000000pt" height="254.000000pt" viewBox="0 0 254.000000 254.000000"
 preserveAspectRatio="xMidYMid meet">
<metadata>
Created by potrace 1.14, written by Peter Selinger 2001-2017
</metadata>
<g transform="translate(0.000000,254.000000) scale(0.100000,-0.100000)"
fill="#000000" stroke="none">
<path d="M895 2523 c-239 -53 -444 -219 -541 -439 -63 -142 -94 -388 -70 -559
4 -27 9 -66 12 -85 9 -61 46 -205 56 -217 6 -7 8 -13 5 -13 -11 0 60 -158 109
-242 26 -46 74 -119 107 -162 60 -79 201 -226 217 -226 5 0 11 8 14 18 9 27
97 117 142 145 43 26 144 61 144 49 -1 -4 -24 -18 -53 -31 -104 -49 -192 -155
-240 -287 -30 -83 -36 -115 -43 -209 l-6 -70 54 -41 c88 -68 276 -147 279
-118 0 5 2 38 3 74 8 195 76 289 237 330 38 10 48 18 71 60 16 29 52 68 84 94
70 55 108 68 62 23 -35 -36 -92 -121 -102 -154 -10 -31 -33 -53 -56 -53 -40 0
-131 -43 -168 -78 -37 -36 -67 -91 -78 -142 -6 -33 -6 -171 1 -178 8 -8 232
-8 290 0 131 18 282 88 385 177 23 21 25 21 37 4 52 -73 98 -97 188 -97 127 1
192 21 201 63 3 14 12 41 20 60 17 38 17 38 -11 41 -39 4 -51 -1 -118 -55 -91
-73 -150 -83 -197 -33 -11 12 -22 40 -25 63 -6 37 -3 47 34 99 113 163 152
384 107 611 -41 204 -227 421 -436 509 l-35 14 -1 -93 c-2 -108 -21 -176 -71
-252 -96 -146 -296 -253 -474 -253 -143 0 -254 78 -290 205 -9 32 -8 31 34
-26 24 -31 109 -89 150 -101 118 -33 252 -8 382 72 142 87 218 292 180 490
-11 59 -64 158 -109 203 -69 68 -130 95 -283 126 -236 49 -353 111 -401 214
-30 63 -11 161 44 226 49 58 147 93 262 93 87 0 165 -32 205 -86 38 -49 67
-145 67 -221 0 -70 -1 -69 63 -66 70 4 87 16 88 61 1 22 2 46 2 53 1 6 -2 37
-6 69 -21 172 -125 286 -302 333 -55 14 -174 19 -220 8z m-74 -766 c70 -54 17
-152 -67 -124 -21 7 -44 45 -44 73 0 23 46 64 72 64 13 0 30 -6 39 -13z"/>
<path d="M621 633 c-6 -21 -14 -87 -17 -148 l-5 -110 51 -68 c28 -38 53 -67
55 -65 4 4 10 38 20 108 3 25 15 78 26 119 11 40 18 74 17 75 -2 1 -33 30 -70
65 l-67 63 -10 -39z"/>
</g>
</svg>
