<svg width="216" height="94" viewBox="0 0 216 94" fill="none" xmlns="http://www.w3.org/2000/svg">
<path d="M83.7187 82.7699V89.1829H82.7798V88.3412C82.7122 88.4186 82.6186 88.5104 82.4976 88.6174C82.3774 88.723 82.1124 88.8691 81.7027 89.0527C81.2937 89.2364 80.8574 89.3282 80.3952 89.3282C79.4419 89.3282 78.6499 89.0115 78.0185 88.3788C77.3877 87.7447 77.0724 86.9688 77.0724 86.0498C77.0724 85.1307 77.3877 84.3542 78.0185 83.7207C78.6492 83.0873 79.4419 82.7706 80.3952 82.7706C80.694 82.7706 80.9805 82.8075 81.2549 82.8791C81.5292 82.9521 81.7581 83.0389 81.941 83.1401C82.1239 83.2421 82.2859 83.3455 82.4249 83.4525C82.5638 83.5595 82.6682 83.6506 82.7352 83.728L82.8367 83.8299L83.7187 82.7699ZM78.6989 87.7468C79.1561 88.2111 79.722 88.4432 80.3959 88.4432C81.0706 88.4432 81.6357 88.2111 82.0937 87.7468C82.5509 87.2819 82.7798 86.7165 82.7798 86.0491C82.7798 85.3817 82.5509 84.8155 82.0937 84.3513C81.6357 83.8863 81.0706 83.6549 80.3959 83.6549C79.722 83.6549 79.1561 83.8863 78.6989 84.3513C78.2409 84.8155 78.0127 85.3817 78.0127 86.0491C78.0127 86.7165 78.2409 87.2819 78.6989 87.7468Z" fill="white"/>
<path d="M93.469 88.3412C93.4013 88.4186 93.3077 88.5104 93.1867 88.6174C93.0665 88.723 92.8015 88.8691 92.3918 89.0527C91.9829 89.2364 91.5466 89.3282 91.0843 89.3282C90.131 89.3282 89.339 89.0115 88.7076 88.3788C88.0769 87.7447 87.7615 86.9688 87.7615 86.0498C87.7615 85.1308 88.0769 84.3542 88.7076 83.7208C89.3383 83.0873 90.131 82.7706 91.0843 82.7706C91.3831 82.7706 91.6697 82.8075 91.944 82.8791C92.2183 82.9521 92.4473 83.0389 92.6302 83.1401C92.813 83.2421 92.975 83.3455 93.114 83.4525C93.253 83.5595 93.3574 83.6506 93.4243 83.728L93.5258 83.8299L94.4071 82.7706V88.8792C94.4071 89.885 94.1206 90.671 93.5474 91.2364C92.9743 91.8026 92.1341 92.0853 91.0267 92.0853C90.6026 92.0853 90.2009 92.0441 89.8207 91.9624C89.4398 91.88 89.1677 91.7954 89.0042 91.7079L88.7443 91.5922V90.6348C88.812 90.6731 88.9056 90.7238 89.0258 90.7867C89.1461 90.8496 89.4017 90.9342 89.7912 91.0412C90.1814 91.1475 90.5839 91.201 90.9979 91.201C92.6446 91.201 93.4682 90.4273 93.4682 88.8799V88.3412H93.469ZM89.3873 87.7468C89.8445 88.2111 90.4104 88.4432 91.0843 88.4432C91.759 88.4432 92.3242 88.2111 92.7821 87.7468C93.2393 87.2819 93.4682 86.7165 93.4682 86.0491C93.4682 85.3817 93.2393 84.8155 92.7821 84.3513C92.3242 83.8863 91.759 83.655 91.0843 83.655C90.4104 83.655 89.8445 83.8863 89.3873 84.3513C88.9294 84.8155 88.7011 85.3817 88.7011 86.0491C88.7011 86.7165 88.9294 87.2819 89.3873 87.7468Z" fill="white"/>
<path d="M99.4766 86.7317C99.6214 87.2342 99.9007 87.6456 100.315 87.9645C100.729 88.2834 101.22 88.4432 101.788 88.4432C102.087 88.4432 102.363 88.4041 102.619 88.3275C102.874 88.2501 103.077 88.1532 103.226 88.0375C103.375 87.9211 103.505 87.8054 103.616 87.6897C103.727 87.5733 103.806 87.4764 103.854 87.3998L103.912 87.2834L104.677 87.8062C104.658 87.8452 104.627 87.898 104.584 87.966C104.54 88.0339 104.434 88.1576 104.266 88.3362C104.098 88.5148 103.912 88.6702 103.71 88.8011C103.508 88.9313 103.234 89.0527 102.887 89.1634C102.54 89.2747 102.169 89.3297 101.774 89.3297C100.84 89.3297 100.053 89.0231 99.4118 88.4092C98.7718 87.7946 98.4514 87.0086 98.4514 86.0513C98.4514 85.1322 98.7667 84.3556 99.3974 83.7222C100.028 83.0888 100.821 82.7721 101.774 82.7721C102.66 82.7721 103.409 83.0483 104.021 83.5993C104.633 84.151 104.981 84.843 105.068 85.6745L99.4766 86.7317ZM100.105 84.3231C99.648 84.7678 99.4097 85.3094 99.3902 85.9478L103.955 85.0773C103.762 84.642 103.474 84.2963 103.088 84.0396C102.702 83.783 102.264 83.6557 101.773 83.6557C101.119 83.6557 100.562 83.8777 100.105 84.3231Z" fill="white"/>
<path d="M108.967 82.7699L109.718 83.7135C110.277 83.0844 110.965 82.7699 111.784 82.7699C112.439 82.7699 113.007 82.9904 113.489 83.4301C113.97 83.8697 114.211 84.5161 114.211 85.3672V89.1829H113.272V85.3672C113.272 84.8444 113.127 84.4337 112.838 84.1343C112.549 83.8343 112.154 83.6846 111.653 83.6846C110.93 83.6846 110.348 84.0129 109.904 84.6709V89.1829H108.966V82.7699H108.967Z" fill="white"/>
<path d="M119.122 83.7135C119.748 83.0844 120.537 82.7699 121.491 82.7699C121.915 82.7699 122.315 82.8379 122.69 82.9731C123.065 83.1083 123.335 83.2435 123.499 83.3794L123.745 83.5971L123.152 84.3231C123.114 84.2746 123.052 84.2146 122.964 84.1416C122.878 84.0685 122.692 83.9702 122.409 83.8444C122.125 83.7186 121.824 83.6557 121.506 83.6557C120.831 83.6557 120.266 83.8849 119.809 84.3448C119.351 84.8039 119.123 85.3723 119.123 86.0491C119.123 86.7259 119.351 87.2942 119.809 87.7533C120.267 88.2125 120.832 88.4424 121.506 88.4424C121.823 88.4424 122.12 88.3868 122.394 88.2761C122.669 88.1648 122.864 88.0505 122.979 87.9348L123.152 87.775L123.744 88.5003C123.687 88.5581 123.597 88.6341 123.477 88.7259C123.357 88.8177 123.102 88.9414 122.712 89.0961C122.322 89.2508 121.915 89.3275 121.491 89.3275C120.537 89.3275 119.748 89.013 119.122 88.3846C118.496 87.7562 118.182 86.9775 118.182 86.0491C118.182 85.1206 118.495 84.3419 119.122 83.7135Z" fill="white"/>
<path d="M128.943 91.94H127.917L129.232 88.7621L126.776 82.9153H127.816L129.738 87.5582L131.659 82.9153H132.684L128.943 91.94Z" fill="white"/>
<path d="M26.1086 58.374V32.7098H1.8V44.2617H11.3458V58.374C11.3458 60.0812 10.8619 61.4305 9.89352 62.4225C8.92512 63.4146 7.49232 63.9106 5.59512 63.9106H1.8V75.4625H5.5944C9.5076 75.4625 12.8376 75.046 15.5844 74.2123C18.3312 73.3793 20.4559 72.1681 21.9586 70.5803C23.4605 68.9924 24.5275 67.2158 25.1604 65.2512C25.7926 63.2859 26.1086 60.9937 26.1086 58.374Z" fill="white"/>
<path d="M38.2644 32.7098L23.6196 75.4625H38.2644L39.3314 71.8305H52.9092L54.0353 75.4625H68.5613L54.0353 32.7098H38.2644ZM42.8292 60.2786L46.1498 49.1439L49.4705 60.2786H42.8292Z" fill="white"/>
<path d="M94.7686 51.8837L83.3256 32.7098H69.4512V75.4625H83.9772V57.8975L94.7095 75.939L105.381 57.8975V75.4625H120.144V32.7098H106.093L94.7686 51.8837Z" fill="white"/>
<path d="M155.542 53.5504C157.162 52.2676 158.299 50.7658 158.984 49.0593C156.755 45.2538 154.759 40.5292 153.759 34.9058C152.448 34.242 151.069 33.7229 149.613 33.3657C147.834 32.9289 145.957 32.7106 143.981 32.7106H123.111V75.4632H145.048C149.673 75.4632 153.458 74.401 156.403 72.2773C159.348 70.1537 160.82 67.0076 160.82 62.839C160.819 58.8701 159.06 55.7738 155.542 53.5504ZM137.874 42.1178H140.898C142.163 42.1178 143.16 42.4352 143.891 43.0701C144.623 43.7057 144.989 44.5994 144.989 45.7498C144.989 46.901 144.623 47.7947 143.891 48.4295C143.16 49.0644 142.162 49.3818 140.898 49.3818H137.874V42.1178ZM144.87 64.8043C144.08 65.4002 143.032 65.6973 141.728 65.6973H137.874V58.7905H141.728C143.032 58.7905 144.08 59.0884 144.87 59.6835C145.661 60.2786 146.056 61.1318 146.056 62.2439C146.056 63.3553 145.661 64.2093 144.87 64.8043Z" fill="white"/>
<path d="M165.833 56.6096C165.118 58.7637 164.835 61.7825 164.869 65.2019C165.755 66.7269 166.847 68.1601 168.144 69.5028C168.481 64.3249 169.938 60.4108 169.938 60.4108C167.918 59.0117 165.833 56.6096 165.833 56.6096Z" fill="white"/>
<path d="M206.071 72.3236C203.169 72.3236 203.102 68.9244 203.131 68.0726C203.277 67.894 203.432 67.719 203.573 67.5368C206.528 63.7074 208.01 59.2243 208.01 54.0861C208.01 47.8539 205.836 42.5849 201.488 38.2775C199.134 35.9456 196.437 34.2565 193.41 33.1878C193.751 35.4401 193.494 37.5588 193.494 37.5588C193.093 45.5379 184.119 50.8771 177.602 50.8771C171.086 50.8771 169.086 46.1128 168.697 43.7035C172.387 49.9841 179.461 50.6016 186.331 45.9689C189.942 43.5335 191.947 37.7316 191.006 32.4763C190.157 27.7343 186.911 23.4378 180.267 22.4616C165.85 20.3437 167.124 13.7167 167.124 13.7167C167.124 13.7167 167.124 6.56696 176.598 6.56696C186.072 6.56696 184.539 17.6763 184.539 17.6763C184.539 17.6763 187.605 17.8412 188.927 16.9959C190.547 3.98557 180.536 1.91541 176.119 1.91541C171.703 1.91541 155.362 6.20325 155.362 27.1971C155.362 37.1025 158.737 44.8329 162.303 50.2386C166.295 56.2901 170.525 59.4275 170.525 59.4275C174.005 53.4607 178.27 53.1215 180.593 52.7889C171.252 55.5511 169.382 64.6647 169.186 70.5217C172.026 73.1255 175.328 74.8601 179.096 75.7199C178.668 64.5382 183.36 64.4847 187.449 63.0067C188.389 60.4521 190.711 58.3422 194.14 56.8982C191.486 58.2865 189.274 62.951 188.776 64.173C179.082 65.4637 180.438 73.0495 180.532 75.9975C181.174 76.1038 181.827 76.1891 182.495 76.2477C182.499 76.2477 182.503 76.2477 182.508 76.247L182.506 76.2477C183.324 76.3193 184.16 76.3569 185.017 76.3569C187.81 76.3569 190.398 75.9708 192.785 75.2086C192.784 75.2079 192.781 75.2072 192.779 75.2065C195.953 74.1927 198.767 72.5036 201.223 70.1428C202.04 71.97 203.982 73.6027 206.457 73.6569C213.204 73.6569 213.037 71.991 213.148 71.2693C213.259 70.5477 213.48 69.6034 214.199 69.1037C211.435 66.9923 209.389 72.3236 206.071 72.3236ZM170.274 24.3503C171.433 24.3503 172.372 25.2939 172.372 26.4574C172.372 27.6208 171.432 28.5644 170.274 28.5644C169.115 28.5644 168.175 27.6208 168.175 26.4574C168.175 25.2939 169.115 24.3503 170.274 24.3503Z" fill="white"/>
<path d="M1.88713 86.4056L72.2923 87.5032V84.4532L1.88713 85.5502V86.4056Z" fill="white"/>
<path d="M136.507 87.5032L206.912 86.4056V85.5502L136.507 84.4532V87.5032Z" fill="white"/>
</svg>
