<svg width="216" height="94" viewBox="0 0 216 94" fill="none" xmlns="http://www.w3.org/2000/svg">
<path d="M1.73877 82.6243H2.79501L4.58925 86.7485L6.44109 82.4083L8.30733 86.7485L10.0872 82.6243H11.1146L8.30805 89.0921L6.42669 84.8232L4.57485 89.0921L1.73877 82.6243Z" fill="white"/>
<path d="M15.1797 86.4294C15.3244 86.9313 15.6038 87.3417 16.0192 87.6592C16.4339 87.9774 16.9257 88.1373 17.4952 88.1373C17.794 88.1373 18.0712 88.0984 18.3268 88.0214C18.5824 87.9443 18.7854 87.8478 18.9345 87.7319C19.0842 87.6167 19.2146 87.5008 19.3247 87.3849C19.4356 87.2697 19.5155 87.1732 19.5638 87.0962L19.6221 86.9802L20.3889 87.5015C20.3694 87.5404 20.3385 87.593 20.2953 87.6606C20.2514 87.7283 20.1455 87.8514 19.977 88.03C19.8086 88.2086 19.6228 88.3626 19.4205 88.4937C19.2182 88.624 18.9431 88.7442 18.5954 88.8551C18.2476 88.966 17.8768 89.0214 17.4815 89.0214C16.5455 89.0214 15.7571 88.7147 15.1156 88.1027C14.4741 87.49 14.1537 86.7066 14.1537 85.7512C14.1537 84.8354 14.469 84.0606 15.1012 83.4285C15.7326 82.797 16.5261 82.481 17.4815 82.481C18.3686 82.481 19.1188 82.756 19.7315 83.3061C20.3442 83.8562 20.6934 84.5459 20.7806 85.3754L15.1797 86.4294ZM15.809 84.0275C15.351 84.471 15.112 85.0118 15.0926 85.6482L19.6646 84.7799C19.4716 84.3458 19.1822 84.0016 18.7962 83.7453C18.4103 83.4897 17.9711 83.3622 17.4794 83.3622C16.8242 83.3622 16.2676 83.584 15.809 84.0275Z" fill="white"/>
<path d="M30.0247 87.9638C30.0052 87.9926 29.9714 88.0315 29.9231 88.079C29.8749 88.1273 29.7734 88.2122 29.6193 88.3325C29.4652 88.4534 29.2982 88.5593 29.1203 88.6507C28.9418 88.7421 28.7157 88.8264 28.4407 88.9041C28.1656 88.9819 27.8783 89.0201 27.5795 89.0201C26.6241 89.0201 25.8314 88.7047 25.1992 88.0725C24.5671 87.4404 24.2517 86.6664 24.2517 85.7498C24.2517 84.8333 24.5671 84.0593 25.1992 83.4271C25.8307 82.7957 26.6241 82.4796 27.5795 82.4796C28.0425 82.4796 28.4716 82.5617 28.8676 82.7258C29.2629 82.8907 29.5473 83.0541 29.7215 83.2183L29.9678 83.4645V78.4872H30.9081V89.0208L30.0247 87.9638ZM25.8796 87.4425C26.3375 87.9055 26.9042 88.1373 27.5795 88.1373C28.2549 88.1373 28.8215 87.9055 29.2795 87.4425C29.7374 86.9789 29.9671 86.4151 29.9671 85.7491C29.9671 85.0838 29.7381 84.5193 29.2795 84.0557C28.8208 83.5927 28.2542 83.3616 27.5795 83.3616C26.9042 83.3616 26.3375 83.5927 25.8796 84.0557C25.4217 84.5193 25.192 85.0838 25.192 85.7491C25.1927 86.4151 25.4217 86.9789 25.8796 87.4425Z" fill="white"/>
<path d="M40.7326 87.9638C40.7131 87.9926 40.6793 88.0315 40.631 88.079C40.5828 88.1273 40.4813 88.2122 40.3272 88.3325C40.1731 88.4534 40.0061 88.5593 39.8282 88.6507C39.6497 88.7421 39.4236 88.8264 39.1486 88.9041C38.8735 88.9819 38.5862 89.0201 38.2874 89.0201C37.332 89.0201 36.5393 88.7047 35.9071 88.0725C35.275 87.4404 34.9596 86.6664 34.9596 85.7498C34.9596 84.8333 35.275 84.0593 35.9071 83.4271C36.5386 82.7957 37.332 82.4796 38.2874 82.4796C38.7504 82.4796 39.1795 82.5617 39.5755 82.7258C39.9708 82.8907 40.2552 83.0541 40.4294 83.2183L40.6757 83.4645V78.4872H41.616V89.0208L40.7326 87.9638ZM36.5868 87.4425C37.0447 87.9055 37.6114 88.1373 38.2867 88.1373C38.9621 88.1373 39.5287 87.9055 39.9866 87.4425C40.4446 86.9789 40.6742 86.4151 40.6742 85.7491C40.6742 85.0838 40.4453 84.5193 39.9866 84.0557C39.528 83.5927 38.9614 83.3616 38.2867 83.3616C37.6114 83.3616 37.0447 83.5927 36.5868 84.0557C36.1289 84.5193 35.8992 85.0838 35.8992 85.7491C35.8999 86.4151 36.1289 86.9789 36.5868 87.4425Z" fill="white"/>
<path d="M46.1001 79.629H47.0411V81.4665H46.1001V79.629ZM46.1001 82.6242H47.0411V88.8753H46.1001V82.6242Z" fill="white"/>
<path d="M51.526 82.4789L52.2784 83.4199C52.8378 82.7928 53.5276 82.4789 54.3477 82.4789C55.0036 82.4789 55.5731 82.6992 56.0548 83.1377C56.5372 83.5762 56.7784 84.2206 56.7784 85.0694V88.8746H55.8381V85.0694C55.8381 84.5482 55.6934 84.1385 55.4039 83.8397C55.1145 83.5409 54.7192 83.3911 54.2181 83.3911C53.4945 83.3911 52.9113 83.7187 52.467 84.3746V88.8746H51.5267V82.4789H51.526Z" fill="white"/>
<path d="M66.4726 88.035C66.4049 88.1121 66.3106 88.2042 66.1903 88.3101C66.0701 88.4159 65.8044 88.5613 65.3947 88.7449C64.985 88.9278 64.5487 89.02 64.0858 89.02C63.1303 89.02 62.3376 88.7046 61.7055 88.0725C61.0733 87.4403 60.7579 86.6663 60.7579 85.7497C60.7579 84.8332 61.0733 84.0592 61.7055 83.427C62.3369 82.7956 63.1303 82.4795 64.0858 82.4795C64.3846 82.4795 64.6719 82.5162 64.9469 82.5882C65.2219 82.6602 65.4509 82.7473 65.6338 82.8481C65.8174 82.9497 65.9786 83.0533 66.1183 83.1599C66.258 83.2665 66.3617 83.3572 66.4294 83.4349L66.5309 83.5365L67.4136 82.4795V88.5714C67.4136 89.5751 67.1263 90.3577 66.5525 90.9229C65.9786 91.4867 65.137 91.7697 64.0275 91.7697C63.6034 91.7697 63.2002 91.7279 62.8193 91.6465C62.4384 91.5645 62.1655 91.4802 62.0014 91.3931L61.7407 91.2772V90.3225C61.8084 90.3613 61.9027 90.4117 62.023 90.4744C62.1432 90.537 62.3988 90.6213 62.7898 90.7278C63.1807 90.8344 63.5832 90.8869 63.9979 90.8869C65.6474 90.8869 66.4726 90.1158 66.4726 88.5721V88.035ZM62.3851 87.4425C62.8431 87.9054 63.4097 88.1373 64.0851 88.1373C64.7604 88.1373 65.327 87.9054 65.785 87.4425C66.2429 86.9788 66.4726 86.415 66.4726 85.749C66.4726 85.0837 66.2436 84.5193 65.785 84.0556C65.3263 83.5926 64.7597 83.3615 64.0851 83.3615C63.4097 83.3615 62.8431 83.5926 62.3851 84.0556C61.9272 84.5193 61.6975 85.0837 61.6975 85.749C61.6975 86.415 61.9272 86.9788 62.3851 87.4425Z" fill="white"/>
<path d="M79.0236 82.9332C78.8119 82.476 78.7054 82.0498 78.7054 81.6545C78.7054 81.2074 78.8371 80.7919 79.1014 80.4075C79.3649 80.0244 79.7004 79.7141 80.1079 79.4787C80.5154 79.2432 80.9381 79.1259 81.3766 79.1259C81.8662 79.1259 82.2751 79.2612 82.602 79.5319C82.9296 79.8027 83.093 80.1259 83.093 80.5032C83.093 80.7862 83.0138 81.0475 82.8562 81.2873C82.6985 81.5278 82.5322 81.648 82.3579 81.648C82.273 81.648 82.2305 81.6034 82.2305 81.5134C82.2305 81.4802 82.2542 81.4075 82.301 81.2945C82.3759 81.1102 82.4141 80.9244 82.4141 80.7365C82.4141 80.4535 82.2982 80.2239 82.0678 80.0475C81.8366 79.8711 81.5587 79.7825 81.234 79.7825C80.7113 79.7825 80.2224 79.9985 79.7681 80.4291C79.3138 80.8596 79.0862 81.3528 79.0862 81.9094C79.0862 82.1592 79.1186 82.3702 79.1849 82.5415C79.2504 82.7136 79.3109 82.8259 79.3649 82.8771C79.4189 82.9289 79.4959 82.9548 79.5946 82.9548C80.2447 82.9548 80.5694 83.1435 80.5694 83.52C80.5694 83.6143 80.5349 83.7036 80.4665 83.7879C80.3981 83.8728 80.298 83.9153 80.1662 83.9153C80.0201 83.9153 79.8343 83.8188 79.6082 83.6259C79.3678 83.4192 79.1323 83.3148 78.9019 83.3148C78.6053 83.3148 78.3238 83.4624 78.0581 83.7562C77.7917 84.0507 77.6585 84.4006 77.6585 84.8052C77.6585 85.5922 78.0494 86.3352 78.8314 87.0343C79.6133 87.7342 80.586 88.0841 81.7495 88.0841C82.8518 88.0841 83.795 87.809 84.5791 87.2604C85.3632 86.7118 85.7556 86.0558 85.7556 85.2934C85.7556 84.7843 85.5626 84.343 85.176 83.9686C84.7901 83.5935 84.2666 83.407 83.6078 83.407C83.0758 83.407 82.6013 83.5531 82.1844 83.8447C81.7675 84.1363 81.5587 84.5014 81.5587 84.9399C81.5587 85.2034 81.6336 85.4208 81.7848 85.59C81.936 85.7592 82.0908 85.8442 82.2514 85.8442C82.435 85.8442 82.5264 85.7455 82.5264 85.5475L82.5192 85.4633C82.5149 85.4021 82.512 85.3596 82.512 85.3359C82.512 85.1285 82.5689 84.9578 82.6812 84.8232C82.7942 84.6893 82.9375 84.6223 83.1125 84.6223C83.2774 84.6223 83.4214 84.6799 83.5438 84.7951C83.6662 84.9111 83.7274 85.0723 83.7274 85.2797C83.7274 85.5763 83.6244 85.8233 83.4199 86.0213C83.2154 86.2186 82.9526 86.3179 82.6322 86.3179C82.2506 86.3179 81.9223 86.1826 81.6466 85.9118C81.3715 85.6411 81.2333 85.3078 81.2333 84.9118C81.2333 84.3322 81.4759 83.8051 81.9612 83.3292C82.4458 82.854 83.327 82.6157 84.6036 82.6157C85.7477 82.6157 86.5793 82.458 87.097 82.1426C87.6154 81.8316 87.8746 81.3586 87.8746 80.7228C87.8746 80.3463 87.7594 80.0359 87.5282 79.7933C87.2978 79.5507 87.0055 79.4297 86.652 79.4297C86.4778 79.4297 86.3474 79.4542 86.2603 79.5038C86.1732 79.5535 86.1293 79.6306 86.1293 79.7335C86.1293 79.7998 86.1718 79.8941 86.2567 80.0165C86.3647 80.172 86.4194 80.3225 86.4194 80.4687C86.4194 80.6429 86.3525 80.7963 86.2178 80.928C86.0839 81.0605 85.9176 81.1253 85.7203 81.1253C85.4849 81.1253 85.3056 81.0504 85.1832 80.8999C85.0608 80.7495 84.9996 80.5723 84.9996 80.37C84.9996 80.0503 85.1558 79.7623 85.469 79.5082C85.7822 79.254 86.1818 79.1273 86.6671 79.1273C87.1661 79.1273 87.5822 79.3094 87.9134 79.6745C88.2454 80.0402 88.4117 80.4787 88.4117 80.9921C88.4117 81.4774 88.2691 81.9202 87.984 82.3205C87.6989 82.7215 87.3389 83.0038 86.9033 83.1687C86.4677 83.3335 85.8564 83.43 85.0702 83.4581C85.8233 83.9902 86.2006 84.6735 86.2006 85.5072C86.2006 86.1336 85.9702 86.7391 85.5086 87.3223C85.0471 87.907 84.4877 88.3397 83.8303 88.6226C83.173 88.9056 82.3716 89.0467 81.4248 89.0467C80.6573 89.0467 80.0352 88.9632 79.56 88.7955C79.0841 88.6291 78.6305 88.385 78.1999 88.0639C77.7686 87.7442 77.4295 87.3519 77.1826 86.8875C76.9349 86.4238 76.8118 85.9255 76.8118 85.3934C76.8118 84.744 76.9975 84.1975 77.3698 83.7547C77.742 83.3105 78.2935 83.0369 79.0236 82.9332Z" fill="white"/>
<path d="M96.8573 86.4294C97.002 86.9313 97.2814 87.3417 97.6968 87.6592C98.1115 87.9774 98.6033 88.1373 99.1728 88.1373C99.4716 88.1373 99.7488 88.0984 100.004 88.0214C100.26 87.9443 100.463 87.8478 100.612 87.7319C100.762 87.6167 100.892 87.5008 101.002 87.3849C101.113 87.2697 101.193 87.1732 101.241 87.0962L101.3 86.9802L102.067 87.5015C102.047 87.5404 102.016 87.593 101.973 87.6606C101.929 87.7283 101.823 87.8514 101.655 88.03C101.486 88.2086 101.3 88.3626 101.098 88.4937C100.895 88.624 100.621 88.7442 100.273 88.8551C99.9252 88.966 99.5544 89.0214 99.1591 89.0214C98.2231 89.0214 97.4347 88.7147 96.7932 88.1027C96.1517 87.49 95.8313 86.7066 95.8313 85.7512C95.8313 84.8354 96.1467 84.0606 96.7788 83.4285C97.4103 82.797 98.2037 82.481 99.1591 82.481C100.046 82.481 100.796 82.756 101.409 83.3061C102.022 83.8562 102.371 84.5459 102.458 85.3754L96.8573 86.4294ZM97.4866 84.0275C97.0287 84.471 96.7896 85.0118 96.7702 85.6482L101.342 84.7799C101.149 84.3458 100.86 84.0016 100.474 83.7453C100.088 83.4897 99.6488 83.3622 99.157 83.3622C98.5018 83.3622 97.9452 83.584 97.4866 84.0275Z" fill="white"/>
<path d="M108.186 89.092L105.423 82.6243H106.451L108.186 86.7484L109.923 82.6243H110.951L108.186 89.092Z" fill="white"/>
<path d="M115.015 86.4294C115.16 86.9313 115.44 87.3417 115.854 87.6592C116.269 87.9774 116.761 88.1373 117.33 88.1373C117.629 88.1373 117.907 88.0984 118.162 88.0214C118.417 87.9443 118.62 87.8478 118.77 87.7319C118.92 87.6167 119.05 87.5008 119.161 87.3849C119.271 87.2697 119.352 87.1732 119.399 87.0962L119.457 86.9802L120.223 87.5015C120.205 87.5404 120.173 87.593 120.129 87.6606C120.086 87.7283 119.98 87.8514 119.812 88.03C119.643 88.2086 119.457 88.3626 119.254 88.4937C119.052 88.624 118.777 88.7442 118.429 88.8551C118.083 88.966 117.711 89.0214 117.315 89.0214C116.379 89.0214 115.591 88.7147 114.949 88.1027C114.308 87.49 113.988 86.7066 113.988 85.7512C113.988 84.8354 114.303 84.0606 114.935 83.4285C115.567 82.797 116.36 82.481 117.315 82.481C118.202 82.481 118.953 82.756 119.565 83.3061C120.178 83.8562 120.527 84.5459 120.614 85.3754L115.015 86.4294ZM115.644 84.0275C115.186 84.471 114.947 85.0118 114.928 85.6482L119.501 84.7799C119.308 84.3458 119.018 84.0016 118.632 83.7453C118.247 83.4897 117.808 83.3622 117.316 83.3622C116.66 83.3622 116.103 83.584 115.644 84.0275Z" fill="white"/>
<path d="M124.522 82.4789L125.274 83.4199C125.834 82.7928 126.523 82.4789 127.344 82.4789C127.999 82.4789 128.568 82.6992 129.051 83.1377C129.533 83.5762 129.774 84.2206 129.774 85.0694V88.8746H128.834V85.0694C128.834 84.5482 128.689 84.1385 128.399 83.8397C128.11 83.5409 127.714 83.3911 127.213 83.3911C126.49 83.3911 125.906 83.7187 125.462 84.3746V88.8746H124.521V82.4789H124.522Z" fill="white"/>
<path d="M134.186 82.8554V80.1072H135.127V82.8554H137.066V83.7389H135.127V88.8753H134.186V83.7389H133.536L134.186 82.8554Z" fill="white"/>
<path d="M148.584 83.5358C148.603 83.507 148.637 83.4681 148.686 83.4199C148.733 83.3717 148.835 83.2867 148.99 83.1665C149.144 83.0455 149.31 82.9404 149.489 82.8482C149.666 82.7568 149.893 82.6725 150.168 82.5948C150.443 82.517 150.73 82.4789 151.029 82.4789C151.983 82.4789 152.777 82.795 153.409 83.4264C154.041 84.0585 154.356 84.8325 154.356 85.7491C154.356 86.6657 154.041 87.4397 153.409 88.0718C152.777 88.704 151.984 89.0193 151.029 89.0193C150.566 89.0193 150.137 88.9373 149.741 88.7731C149.345 88.6089 149.062 88.4455 148.887 88.2806L148.641 88.0344V91.6229H147.7V82.4781L148.584 83.5358ZM152.729 84.0564C152.27 83.5934 151.704 83.3623 151.029 83.3623C150.353 83.3623 149.787 83.5934 149.329 84.0564C148.871 84.5201 148.642 85.0845 148.642 85.7498C148.642 86.4158 148.871 86.9796 149.329 87.4433C149.787 87.9062 150.354 88.1381 151.029 88.1381C151.704 88.1381 152.271 87.9062 152.729 87.4433C153.187 86.9796 153.416 86.4158 153.416 85.7498C153.416 85.0845 153.187 84.5193 152.729 84.0564Z" fill="white"/>
<path d="M158.407 78.4857H159.348V88.8746H158.407V78.4857Z" fill="white"/>
<path d="M170.055 82.4789V88.8746H169.114V88.0351C169.047 88.1122 168.952 88.2043 168.832 88.3102C168.712 88.416 168.446 88.5614 168.036 88.745C167.627 88.9279 167.19 89.0201 166.727 89.0201C165.773 89.0201 164.979 88.7047 164.347 88.0726C163.715 87.4404 163.4 86.6664 163.4 85.7498C163.4 84.8333 163.715 84.0593 164.347 83.4271C164.979 82.7957 165.772 82.4796 166.727 82.4796C167.026 82.4796 167.313 82.5163 167.588 82.5883C167.863 82.6603 168.092 82.7474 168.276 82.8482C168.458 82.9498 168.62 83.0534 168.76 83.16C168.9 83.2666 169.003 83.3573 169.072 83.435L169.173 83.5366L170.055 82.4789ZM165.027 87.4426C165.485 87.9055 166.052 88.1374 166.727 88.1374C167.401 88.1374 167.969 87.9055 168.427 87.4426C168.885 86.9789 169.114 86.4151 169.114 85.7491C169.114 85.0838 168.885 84.5194 168.427 84.0557C167.968 83.5927 167.401 83.3616 166.727 83.3616C166.052 83.3616 165.485 83.5927 165.027 84.0557C164.568 84.5194 164.339 85.0838 164.339 85.7491C164.339 86.4151 164.569 86.9789 165.027 87.4426Z" fill="white"/>
<path d="M174.54 82.4789L175.293 83.4199C175.852 82.7928 176.542 82.4789 177.362 82.4789C178.018 82.4789 178.587 82.6992 179.069 83.1377C179.551 83.5762 179.793 84.2206 179.793 85.0694V88.8746H178.852V85.0694C178.852 84.5482 178.708 84.1385 178.417 83.8397C178.129 83.5409 177.733 83.3911 177.232 83.3911C176.508 83.3911 175.925 83.7187 175.481 84.3746V88.8746H174.54V82.4789H174.54Z" fill="white"/>
<path d="M184.206 82.4789L184.958 83.4199C185.517 82.7928 186.207 82.4789 187.027 82.4789C187.683 82.4789 188.252 82.6992 188.734 83.1377C189.217 83.5762 189.458 84.2206 189.458 85.0694V88.8746H188.518V85.0694C188.518 84.5482 188.373 84.1385 188.083 83.8397C187.794 83.5409 187.398 83.3911 186.897 83.3911C186.173 83.3911 185.59 83.7187 185.146 84.3746V88.8746H184.205V82.4789H184.206Z" fill="white"/>
<path d="M194.464 86.4294C194.609 86.9313 194.889 87.3417 195.303 87.6592C195.717 87.9774 196.21 88.1373 196.779 88.1373C197.078 88.1373 197.355 88.0984 197.611 88.0214C197.866 87.9443 198.069 87.8478 198.219 87.7319C198.369 87.6167 198.499 87.5008 198.61 87.3849C198.72 87.2697 198.801 87.1732 198.848 87.0962L198.906 86.9802L199.672 87.5015C199.654 87.5404 199.622 87.593 199.578 87.6606C199.535 87.7283 199.429 87.8514 199.261 88.03C199.092 88.2086 198.906 88.3626 198.703 88.4937C198.501 88.624 198.226 88.7442 197.878 88.8551C197.532 88.966 197.16 89.0214 196.764 89.0214C195.828 89.0214 195.04 88.7147 194.398 88.1027C193.757 87.49 193.437 86.7066 193.437 85.7512C193.437 84.8354 193.752 84.0606 194.384 83.4285C195.015 82.797 195.809 82.481 196.764 82.481C197.651 82.481 198.402 82.756 199.014 83.3061C199.627 83.8562 199.976 84.5459 200.063 85.3754L194.464 86.4294ZM195.093 84.0275C194.635 84.471 194.396 85.0118 194.377 85.6482L198.95 84.7799C198.757 84.3458 198.467 84.0016 198.081 83.7453C197.696 83.4897 197.257 83.3622 196.765 83.3622C196.108 83.3622 195.552 83.584 195.093 84.0275Z" fill="white"/>
<path d="M207.211 83.4199H206.907C206.579 83.4199 206.285 83.4775 206.024 83.5934C205.764 83.7094 205.566 83.8469 205.431 84.0053C205.296 84.1651 205.187 84.3264 205.106 84.4906C205.024 84.6547 204.972 84.7944 204.954 84.9103L204.91 85.0838V88.8746H203.969V82.4789L204.794 83.4919C205.276 82.8166 205.98 82.4789 206.907 82.4789H207.211V83.4199V83.4199Z" fill="white"/>
<path d="M25.9704 58.1443V32.5469H1.62073V44.069H11.1823V58.145C11.1823 59.8478 10.6978 61.1935 9.72721 62.1835C8.75737 63.1735 7.32241 63.6682 5.42161 63.6682H1.62073V75.1903H5.42161C9.34129 75.1903 12.677 74.7749 15.4289 73.9433C18.1807 73.1124 20.309 71.905 21.8138 70.3202C23.3186 68.737 24.3871 66.965 25.0207 65.0045C25.6536 63.0439 25.9704 60.7572 25.9704 58.1443Z" fill="white"/>
<path d="M38.1463 32.5469L23.4763 75.1896H38.1463L39.2148 71.5666H52.8156L53.9438 75.1896H68.4943L53.9438 32.5469H38.1463ZM42.719 60.0444L46.0447 48.9384L49.3704 60.0444H42.719Z" fill="white"/>
<path d="M94.7462 51.6708L83.2838 32.5469H69.3864V75.1896H83.9368V57.6691L94.6864 75.6648L105.377 57.6691V75.1896H120.165V32.5469H106.09L94.7462 51.6708Z" fill="white"/>
<path d="M155.623 53.3333C157.246 52.0538 158.384 50.5555 159.07 48.8542C156.838 45.0583 154.838 40.3459 153.837 34.7371C152.524 34.0754 151.142 33.5578 149.684 33.2006C147.902 32.765 146.021 32.5469 144.041 32.5469H123.136V75.1896H145.11C149.743 75.1896 153.534 74.1305 156.483 72.0122C159.433 69.894 160.908 66.7555 160.908 62.5982C160.909 58.639 159.147 55.5509 155.623 53.3333ZM137.925 41.9306H140.954C142.221 41.9306 143.221 42.2474 143.953 42.881C144.685 43.5154 145.052 44.406 145.052 45.5537C145.052 46.7021 144.685 47.5927 143.953 48.2263C143.221 48.8599 142.221 49.1767 140.954 49.1767H137.925V41.9306ZM144.932 64.5581C144.14 65.1528 143.091 65.4487 141.785 65.4487H137.925V58.5598H141.785C143.091 58.5598 144.14 58.8571 144.932 59.4504C145.724 60.0444 146.12 60.8954 146.12 62.0042C146.12 63.113 145.724 63.9648 144.932 64.5581Z" fill="white"/>
<path d="M165.93 56.3846C165.214 58.5331 164.93 61.5449 164.966 64.9548C165.853 66.4754 166.947 67.9054 168.246 69.2446C168.583 64.08 170.042 60.1762 170.042 60.1762C168.019 58.7808 165.93 56.3846 165.93 56.3846Z" fill="white"/>
<path d="M206.238 72.0583C203.33 72.0583 203.263 68.6678 203.292 67.8182C203.439 67.6396 203.594 67.4654 203.735 67.284C206.695 63.4644 208.18 58.9932 208.18 53.8675C208.18 47.651 206.002 42.3957 201.648 38.0995C199.289 35.7732 196.587 34.0891 193.555 33.0228C193.897 35.2692 193.639 37.3824 193.639 37.3824C193.238 45.3412 184.249 50.6664 177.721 50.6664C171.194 50.6664 169.19 45.9136 168.8 43.511C172.498 49.7757 179.584 50.392 186.464 45.7704C190.081 43.3411 192.09 37.5544 191.147 32.3128C190.297 27.5832 187.045 23.297 180.39 22.3236C165.949 20.2111 167.225 13.6015 167.225 13.6015C167.225 13.6015 167.225 6.46988 176.715 6.46988C186.206 6.46988 184.669 17.5507 184.669 17.5507C184.669 17.5507 187.741 17.7156 189.065 16.8717C190.687 3.89444 180.66 1.8302 176.235 1.8302C171.811 1.8302 155.442 6.107 155.442 27.0468C155.442 36.9266 158.823 44.6371 162.395 50.0292C166.393 56.0649 170.631 59.194 170.631 59.194C174.117 53.2425 178.389 52.9048 180.716 52.5722C171.359 55.3276 169.487 64.4176 169.29 70.2597C172.135 72.8568 175.442 74.5876 179.217 75.4444C178.788 64.2916 183.488 64.2384 187.585 62.7638C188.526 60.2157 190.853 58.1112 194.286 56.6712C191.627 58.0557 189.412 62.7084 188.914 63.9273C179.203 65.2147 180.561 72.7812 180.656 75.7209C181.299 75.8268 181.953 75.9117 182.622 75.97C182.627 75.97 182.631 75.97 182.635 75.9693L182.634 75.97C183.453 76.0413 184.291 76.0788 185.149 76.0788C187.947 76.0788 190.539 75.6936 192.931 74.934C192.929 74.9332 192.927 74.9325 192.925 74.9318C196.104 73.9202 198.922 72.2354 201.383 69.8817C202.201 71.704 204.147 73.3327 206.626 73.3867C213.383 73.3867 213.217 71.7249 213.327 71.0049C213.438 70.2849 213.66 69.3432 214.38 68.8449C211.61 66.7411 209.561 72.0583 206.238 72.0583ZM170.379 24.2078C171.54 24.2078 172.481 25.1488 172.481 26.3095C172.481 27.4701 171.54 28.4112 170.379 28.4112C169.219 28.4112 168.278 27.4701 168.278 26.3095C168.277 25.1488 169.218 24.2078 170.379 24.2078Z" fill="white"/>
</svg>
