<svg width="216" height="94" viewBox="0 0 216 94" fill="none" xmlns="http://www.w3.org/2000/svg">
<path d="M9.17841 83.6067V89.9895H8.23952V89.1514C8.17184 89.2292 8.07824 89.3206 7.958 89.4258C7.83776 89.5316 7.5728 89.6763 7.16384 89.8592C6.75487 90.0421 6.31855 90.1335 5.85703 90.1335C4.90374 90.1335 4.11174 89.8182 3.48173 89.1882C2.85101 88.5574 2.53564 87.7849 2.53564 86.8697C2.53564 85.9561 2.85101 85.1828 3.48173 84.552C4.11174 83.9213 4.90374 83.606 5.85703 83.606C6.15583 83.606 6.44167 83.6427 6.71599 83.714C6.99031 83.7867 7.21856 83.8731 7.40144 83.9746C7.58432 84.0754 7.74632 84.1791 7.886 84.2849C8.02496 84.3908 8.12864 84.4822 8.19632 84.5592L8.29712 84.66L9.17841 83.6067ZM4.1607 88.5603C4.6179 89.0226 5.18382 89.2537 5.85775 89.2537C6.53167 89.2537 7.0976 89.0226 7.5548 88.5603C8.012 88.0988 8.24024 87.535 8.24024 86.8705C8.24024 86.2066 8.012 85.6436 7.5548 85.1806C7.0976 84.7191 6.53167 84.488 5.85775 84.488C5.18382 84.488 4.6179 84.7191 4.1607 85.1806C3.70349 85.6428 3.47525 86.2066 3.47525 86.8705C3.47453 87.535 3.70277 88.0981 4.1607 88.5603Z" fill="white"/>
<path d="M15.824 83.6067L16.5757 84.5456C17.1337 83.9199 17.822 83.6067 18.6406 83.6067C19.2951 83.6067 19.8632 83.8263 20.3442 84.2641C20.8258 84.7025 21.0663 85.3448 21.0663 86.1922V89.9903H20.1274V86.1922C20.1274 85.6717 19.9834 85.2627 19.694 84.9646C19.406 84.6665 19.0107 84.5175 18.5103 84.5175C17.7881 84.5175 17.2057 84.8444 16.7629 85.4996V89.9903H15.824V83.6067Z" fill="white"/>
<path d="M27.6409 80.7627H28.5798V82.5965H27.6409V80.7627ZM27.6409 83.7514H28.5798V89.9896H27.6409V83.7514Z" fill="white"/>
<path d="M42.9063 86.1922C42.9063 85.6342 42.7739 85.2152 42.5089 84.9358C42.2447 84.6565 41.9106 84.5175 41.5059 84.5175C40.8709 84.5175 40.3597 84.8257 39.9752 85.442C40.0234 85.6825 40.0479 85.9331 40.0479 86.193V89.991H39.109V86.193C39.109 85.635 38.9766 85.2159 38.7116 84.9366C38.4474 84.6572 38.1125 84.5182 37.7086 84.5182C37.0347 84.5182 36.5199 84.8358 36.1635 85.4708V89.991H35.2246V83.6082L35.9763 84.547C36.5055 83.9214 37.1218 83.6082 37.8245 83.6082C38.6619 83.6082 39.2826 83.9552 39.6865 84.6478C40.2258 83.9552 40.8709 83.6082 41.6219 83.6082C42.2187 83.6082 42.7386 83.8155 43.1814 84.2295C43.6242 84.6435 43.8459 85.298 43.8459 86.1937V89.9917H42.9071V86.1922H42.9063Z" fill="white"/>
<path d="M56.6296 83.6067V89.9895H55.6907V89.1514C55.6237 89.2292 55.5294 89.3206 55.4092 89.4258C55.2889 89.5316 55.024 89.6763 54.615 89.8592C54.206 90.0421 53.7697 90.1335 53.3082 90.1335C52.3549 90.1335 51.5629 89.8182 50.9329 89.1882C50.3022 88.5574 49.9868 87.7849 49.9868 86.8697C49.9868 85.9561 50.3022 85.1828 50.9329 84.552C51.5629 83.9213 52.3549 83.606 53.3082 83.606C53.607 83.606 53.8928 83.6427 54.1672 83.714C54.4415 83.7867 54.6697 83.8731 54.8526 83.9746C55.0355 84.0754 55.1975 84.1791 55.3372 84.2849C55.4761 84.3908 55.5798 84.4822 55.6475 84.5592L55.7483 84.66L56.6296 83.6067ZM51.6111 88.5603C52.0683 89.0226 52.6343 89.2537 53.3082 89.2537C53.9821 89.2537 54.548 89.0226 55.0052 88.5603C55.4624 88.0988 55.6907 87.535 55.6907 86.8705C55.6907 86.2066 55.4624 85.6436 55.0052 85.1806C54.548 84.7191 53.9821 84.488 53.3082 84.488C52.6343 84.488 52.0683 84.7191 51.6111 85.1806C51.1539 85.6428 50.9257 86.2066 50.9257 86.8705C50.9257 87.535 51.1539 88.0981 51.6111 88.5603Z" fill="white"/>
<path d="M62.8424 83.7513H67.5498L64.142 89.1082H67.6369V89.9895H62.4817L65.8751 84.6326H62.8424V83.7513Z" fill="white"/>
<path d="M73.5596 80.7627H74.4985V82.5965H73.5596V80.7627ZM73.5596 83.7514H74.4985V89.9896H73.5596V83.7514Z" fill="white"/>
<path d="M86.4069 89.1889C85.7762 89.8189 84.9842 90.1343 84.0316 90.1343C83.0783 90.1343 82.2863 89.8189 81.6563 89.1889C81.0256 88.5582 80.7102 87.7856 80.7102 86.8705C80.7102 85.9568 81.0256 85.1835 81.6563 84.5528C82.2863 83.9221 83.0783 83.6067 84.0316 83.6067C84.9842 83.6067 85.7762 83.9221 86.4069 84.5528C87.0376 85.1835 87.353 85.9561 87.353 86.8705C87.353 87.7849 87.0376 88.5582 86.4069 89.1889ZM82.3345 88.5603C82.7917 89.0226 83.3577 89.2537 84.0316 89.2537C84.7055 89.2537 85.2714 89.0226 85.7286 88.5603C86.1858 88.0988 86.4141 87.535 86.4141 86.8705C86.4141 86.2066 86.1858 85.6436 85.7286 85.1806C85.2714 84.7191 84.7055 84.488 84.0316 84.488C83.3577 84.488 82.7917 84.7191 82.3345 85.1806C81.8773 85.6429 81.6491 86.2066 81.6491 86.8705C81.6491 87.535 81.8773 88.0981 82.3345 88.5603Z" fill="white"/>
<path d="M93.5657 83.6067L94.3174 84.5456C94.8754 83.9199 95.5637 83.6067 96.3823 83.6067C97.0368 83.6067 97.6049 83.8263 98.0859 84.2641C98.5675 84.7025 98.808 85.3448 98.808 86.1922V89.9903H97.8691V86.1922C97.8691 85.6717 97.7251 85.2627 97.4357 84.9646C97.1477 84.6665 96.7524 84.5175 96.252 84.5175C95.5298 84.5175 94.9474 84.8444 94.5046 85.4996V89.9903H93.5657V83.6067Z" fill="white"/>
<path d="M105.974 87.5494C106.118 88.0499 106.397 88.4588 106.812 88.7763C107.225 89.0939 107.716 89.2537 108.285 89.2537C108.583 89.2537 108.86 89.2148 109.114 89.1378C109.37 89.06 109.571 88.9643 109.721 88.8491C109.871 88.7339 110.001 88.6179 110.111 88.502C110.222 88.3861 110.301 88.2903 110.35 88.214L110.407 88.0981L111.172 88.6179C111.153 88.6568 111.122 88.7094 111.078 88.7771C111.035 88.844 110.929 88.9671 110.761 89.1457C110.592 89.3235 110.407 89.4769 110.205 89.6072C110.003 89.7375 109.728 89.8578 109.382 89.9679C109.036 90.0788 108.665 90.1343 108.27 90.1343C107.337 90.1343 106.55 89.829 105.909 89.2177C105.269 88.6064 104.949 87.8245 104.949 86.8712C104.949 85.9575 105.264 85.1842 105.895 84.5535C106.525 83.9228 107.317 83.6074 108.27 83.6074C109.156 83.6074 109.904 83.8817 110.516 84.4304C111.127 84.979 111.476 85.6681 111.562 86.4954L105.974 87.5494ZM106.602 85.1526C106.145 85.5954 105.906 86.1346 105.887 86.7697L110.451 85.9035C110.258 85.4701 109.969 85.1266 109.584 84.871C109.198 84.6161 108.761 84.488 108.27 84.488C107.615 84.488 107.059 84.7098 106.602 85.1526Z" fill="white"/>
<path d="M126.875 83.9834V81.2395H127.814V83.9834H129.749V84.864H127.814V89.9904H126.875V84.864H126.226L126.875 83.9834Z" fill="white"/>
<path d="M140.624 90.1342L139.859 89.196C139.301 89.8217 138.617 90.1342 137.809 90.1342C137.154 90.1342 136.586 89.9153 136.105 89.4768C135.623 89.0391 135.383 88.3968 135.383 87.5494V83.7513H136.322V87.5494C136.322 88.0692 136.466 88.4782 136.755 88.7763C137.043 89.0751 137.438 89.2241 137.939 89.2241C138.661 89.2241 139.243 88.8972 139.686 88.242V83.7513H140.624V90.1342Z" fill="white"/>
<path d="M150.505 84.5456H150.202C149.875 84.5456 149.581 84.6032 149.321 84.7191C149.061 84.835 148.864 84.9718 148.729 85.1302C148.594 85.2893 148.486 85.4506 148.404 85.6141C148.322 85.7782 148.272 85.9179 148.253 86.0331L148.21 86.2066V89.9895H147.271V83.6067L148.094 84.6183C148.576 83.9444 149.278 83.6067 150.202 83.6067H150.505V84.5456Z" fill="white"/>
<path d="M156.212 80.7627H157.151V82.5965H156.212V80.7627ZM156.212 83.7514H157.151V89.9896H156.212V83.7514Z" fill="white"/>
<path d="M163.535 88.4739C163.593 88.5316 163.67 88.6035 163.766 88.6907C163.862 88.7771 164.069 88.893 164.387 89.0377C164.704 89.1817 165.027 89.2544 165.355 89.2544C165.702 89.2544 165.985 89.1695 166.207 89.001C166.428 88.8325 166.539 88.5942 166.539 88.286C166.539 87.998 166.428 87.7712 166.207 87.6078C165.985 87.4436 165.716 87.3212 165.399 87.2399C165.08 87.1578 164.765 87.0663 164.452 86.9655C164.139 86.864 163.872 86.679 163.651 86.4097C163.429 86.1397 163.319 85.784 163.319 85.3412C163.319 84.8595 163.506 84.4506 163.882 84.1136C164.257 83.7774 164.744 83.6082 165.342 83.6082C165.717 83.6082 166.075 83.6658 166.417 83.7817C166.759 83.8976 167.007 84.0128 167.161 84.1287L167.392 84.2878L166.872 85.0388C166.42 84.673 165.91 84.4902 165.342 84.4902C165.014 84.4902 164.752 84.5672 164.554 84.7213C164.357 84.8746 164.257 85.082 164.257 85.3426C164.257 85.6026 164.368 85.8042 164.589 85.9482C164.811 86.0929 165.08 86.2059 165.399 86.288C165.716 86.3701 166.031 86.4666 166.344 86.5767C166.657 86.6869 166.924 86.8849 167.145 87.1686C167.367 87.4523 167.477 87.8259 167.477 88.2875C167.477 88.8268 167.287 89.2696 166.907 89.6166C166.527 89.9636 166.009 90.1364 165.354 90.1364C164.892 90.1364 164.459 90.0594 164.054 89.906C163.65 89.752 163.362 89.5979 163.188 89.4438L162.928 89.2127L163.535 88.4739Z" fill="white"/>
<path d="M173.473 83.9834V81.2395H174.412V83.9834H176.347V84.864H174.412V89.9904H173.473V84.864H172.824L173.473 83.9834Z" fill="white"/>
<path d="M182.053 80.7627H182.992V82.5965H182.053V80.7627ZM182.053 83.7514H182.992V89.9896H182.053V83.7514Z" fill="white"/>
<path d="M190.142 84.5456C190.768 83.9199 191.558 83.6067 192.51 83.6067C192.934 83.6067 193.333 83.6736 193.709 83.8097C194.084 83.9444 194.354 84.079 194.518 84.2137L194.763 84.4304L194.171 85.1525C194.133 85.1043 194.07 85.0445 193.983 84.9718C193.897 84.8998 193.711 84.8012 193.428 84.6759C193.144 84.5506 192.843 84.488 192.525 84.488C191.852 84.488 191.286 84.7169 190.828 85.1741C190.371 85.6313 190.143 86.1965 190.143 86.8705C190.143 87.5444 190.371 88.1103 190.828 88.5675C191.286 89.0247 191.852 89.2537 192.525 89.2537C192.843 89.2537 193.14 89.1982 193.414 89.0874C193.688 88.9765 193.883 88.8634 193.999 88.7475L194.172 88.5884L194.764 89.3098C194.706 89.3674 194.617 89.4423 194.497 89.5338C194.376 89.6252 194.122 89.7483 193.731 89.9024C193.341 90.0558 192.934 90.1328 192.511 90.1328C191.559 90.1328 190.769 89.8203 190.143 89.1946C189.517 88.5682 189.204 87.7935 189.204 86.869C189.203 85.946 189.517 85.1713 190.142 84.5456Z" fill="white"/>
<path d="M206.536 83.6067V89.9895H205.597V89.1514C205.53 89.2292 205.436 89.3206 205.316 89.4258C205.195 89.5316 204.93 89.6763 204.522 89.8592C204.113 90.0421 203.676 90.1335 203.215 90.1335C202.261 90.1335 201.469 89.8182 200.839 89.1882C200.209 88.5574 199.893 87.7849 199.893 86.8697C199.893 85.9561 200.209 85.1828 200.839 84.552C201.469 83.9213 202.261 83.606 203.215 83.606C203.513 83.606 203.799 83.6427 204.074 83.714C204.348 83.7867 204.576 83.8731 204.759 83.9746C204.942 84.0754 205.104 84.1791 205.244 84.2849C205.383 84.3908 205.486 84.4822 205.554 84.5592L205.655 84.66L206.536 83.6067ZM201.518 88.5603C201.975 89.0226 202.541 89.2537 203.215 89.2537C203.889 89.2537 204.455 89.0226 204.912 88.5603C205.369 88.0988 205.597 87.535 205.597 86.8705C205.597 86.2066 205.369 85.6436 204.912 85.1806C204.455 84.7191 203.889 84.488 203.215 84.488C202.541 84.488 201.975 84.7191 201.518 85.1806C201.06 85.6428 200.832 86.2066 200.832 86.8705C200.831 87.535 201.06 88.0981 201.518 88.5603Z" fill="white"/>
<path d="M26.3088 58.2187V32.6643H2V44.1664H11.5458V58.2187C11.5458 59.9187 11.062 61.2622 10.0936 62.25C9.12517 63.2379 7.69236 63.7318 5.79515 63.7318H2V75.2346H5.79443C9.70765 75.2346 13.0377 74.8199 15.7845 73.9897C18.5313 73.1603 20.656 71.9543 22.1587 70.3731C23.6606 68.792 24.7277 67.0229 25.3606 65.0667C25.9927 63.1097 26.3088 60.8273 26.3088 58.2187Z" fill="white"/>
<path d="M38.4647 32.6643L23.8198 75.2353H38.4647L39.5318 71.6187H53.1096L54.2357 75.2353H68.7618L54.2357 32.6643H38.4647ZM43.0296 60.1159L46.3502 49.0286L49.6709 60.1159H43.0296Z" fill="white"/>
<path d="M94.9691 51.756L83.5261 32.6643H69.6516V75.2353H84.1777V57.7442L94.9101 75.7098L105.582 57.7442V75.2353H120.345V32.6643H106.293L94.9691 51.756Z" fill="white"/>
<path d="M155.743 53.4156C157.363 52.1383 158.5 50.6428 159.185 48.9436C156.956 45.1542 154.96 40.4497 153.96 34.8502C152.65 34.1893 151.27 33.6723 149.814 33.3166C148.035 32.8817 146.158 32.6643 144.182 32.6643H123.312V75.2353H145.249C149.874 75.2353 153.659 74.1776 156.604 72.063C159.549 69.9483 161.021 66.8156 161.021 62.6648C161.02 58.7126 159.261 55.6296 155.743 53.4156ZM138.075 42.0323H141.099C142.364 42.0323 143.361 42.3484 144.092 42.9805C144.824 43.6134 145.19 44.5033 145.19 45.6489C145.19 46.7951 144.824 47.6851 144.092 48.3172C143.361 48.9494 142.363 49.2655 141.099 49.2655H138.075V42.0323ZM145.072 64.6217C144.281 65.215 143.233 65.5109 141.929 65.5109H138.075V58.6334H141.929C143.233 58.6334 144.281 58.9301 145.072 59.5227C145.862 60.1152 146.257 60.9648 146.257 62.0722C146.257 63.1796 145.862 64.0292 145.072 64.6217Z" fill="white"/>
<path d="M166.034 56.462C165.319 58.6069 165.036 61.613 165.07 65.0179C165.956 66.5363 167.048 67.9634 168.345 69.3004C168.682 64.1445 170.139 60.2471 170.139 60.2471C168.119 58.8539 166.034 56.462 166.034 56.462Z" fill="white"/>
<path d="M206.272 72.109C203.37 72.109 203.303 68.7243 203.332 67.8761C203.478 67.6983 203.634 67.5241 203.774 67.3426C206.73 63.5295 208.211 59.0654 208.211 53.9491C208.211 47.7434 206.037 42.4967 201.69 38.2076C199.335 35.8856 196.638 34.2037 193.611 33.1395C193.952 35.3823 193.695 37.4919 193.695 37.4919C193.294 45.4372 184.32 50.7537 177.803 50.7537C171.287 50.7537 169.287 46.0096 168.898 43.6105C172.588 49.8645 179.663 50.4794 186.532 45.8663C190.143 43.4413 192.148 37.664 191.207 32.431C190.358 27.7092 187.112 23.4309 180.468 22.4589C166.051 20.35 167.325 13.7512 167.325 13.7512C167.325 13.7512 167.325 6.63179 176.799 6.63179C186.273 6.63179 184.74 17.6939 184.74 17.6939C184.74 17.6939 187.806 17.8581 189.128 17.0164C190.748 4.06137 180.737 2 176.32 2C171.904 2 155.562 6.26963 155.562 27.1742C155.562 37.0376 158.938 44.7352 162.504 50.1179C166.496 56.1437 170.726 59.2678 170.726 59.2678C174.206 53.3263 178.471 52.9886 180.794 52.6574C171.453 55.4078 169.583 64.4827 169.387 70.3148C172.227 72.9075 175.529 74.6348 179.297 75.4909C178.869 64.3567 183.561 64.3035 187.65 62.8318C188.591 60.288 190.913 58.187 194.341 56.7492C191.687 58.1316 189.475 62.7763 188.977 63.9931C179.283 65.2784 180.639 72.8319 180.733 75.7674C181.375 75.8732 182.028 75.9582 182.696 76.0165C182.7 76.0165 182.705 76.0165 182.709 76.0158C182.708 76.0158 182.708 76.0158 182.707 76.0165C183.525 76.0878 184.361 76.1252 185.218 76.1252C188.011 76.1252 190.599 75.7407 192.986 74.9819C192.985 74.9811 192.983 74.9804 192.98 74.9797C196.154 73.9703 198.968 72.2883 201.425 69.9375C202.241 71.757 204.184 73.3827 206.658 73.4367C213.405 73.4367 213.238 71.7778 213.349 71.0593C213.46 70.3407 213.681 69.4004 214.4 68.9029C211.636 66.8004 209.59 72.109 206.272 72.109ZM170.475 24.3396C171.634 24.3396 172.573 25.2792 172.573 26.4377C172.573 27.5962 171.633 28.5358 170.475 28.5358C169.316 28.5358 168.376 27.5962 168.376 26.4377C168.376 25.2792 169.316 24.3396 170.475 24.3396Z" fill="white"/>
</svg>
